<?xml version="1.0" encoding="UTF-8"?>
<svg version="1.1" xmlns="http://www.w3.org/2000/svg" width="87" height="80">
<path d="M0 0 C1.02574883 0.00212242 1.02574883 0.00212242 2.07221985 0.00428772 C4.25261847 0.00987749 6.43291376 0.02242803 8.61328125 0.03515625 C10.09309747 0.04017258 11.57291531 0.04473525 13.05273438 0.04882812 C16.67711682 0.05984354 20.30143895 0.07710113 23.92578125 0.09765625 C24.57983398 1.91088867 24.57983398 1.91088867 24.92578125 4.09765625 C23.01338434 6.41617232 21.16696146 8.37023424 18.98828125 10.41015625 C18.38798096 10.99047607 17.78768066 11.5707959 17.16918945 12.16870117 C13.47064564 15.71988074 9.68562857 19.15832027 5.76953125 22.46875 C2.9174912 24.98845488 0.30997487 27.74063334 -2.3125 30.49609375 C-4.07421875 32.09765625 -4.07421875 32.09765625 -7.07421875 33.09765625 C-9.07038429 31.10149071 -8.48405302 27.28063662 -8.63671875 24.53515625 C-8.67990234 23.82423828 -8.72308594 23.11332031 -8.76757812 22.38085938 C-8.87393652 20.62003713 -8.97460721 18.85887305 -9.07421875 17.09765625 C-9.79955811 17.68051392 -9.79955811 17.68051392 -10.53955078 18.27514648 C-12.75014251 20.04050189 -14.97435261 21.78783128 -17.19921875 23.53515625 C-17.95976563 24.14681641 -18.7203125 24.75847656 -19.50390625 25.38867188 C-26.74954928 31.04152269 -26.74954928 31.04152269 -32.07421875 31.09765625 C-34.44921875 30.09765625 -34.44921875 30.09765625 -36.07421875 28.09765625 C-36.94921875 24.91015625 -36.94921875 24.91015625 -36.07421875 21.09765625 C-33.60918059 18.4377081 -30.75885369 16.41624493 -27.80029297 14.33398438 C-25.8190751 12.91490555 -23.88655765 11.44052885 -21.953125 9.95703125 C-15.92386376 5.34846584 -15.92386376 5.34846584 -13.515625 3.5390625 C-12.62919312 2.86919312 -12.62919312 2.86919312 -11.72485352 2.18579102 C-7.94951197 -0.30299722 -4.38191361 -0.01788536 0 0 Z " fill="#056050" transform="translate(50.07421875,35.90234375)"/>
<path d="M0 0 C1.32 0.33 2.64 0.66 4 1 C4 12.22 4 23.44 4 35 C-7.55 35 -19.1 35 -31 35 C-31.33 33.68 -31.66 32.36 -32 31 C-30.22094727 28.63745117 -30.22094727 28.63745117 -27.56640625 26.04296875 C-27.0956517 25.57691727 -26.62489716 25.11086578 -26.13987732 24.63069153 C-24.62539471 23.13757635 -23.09423593 21.66288847 -21.5625 20.1875 C-20.56466795 19.20618245 -19.5679104 18.22377106 -18.57226562 17.24023438 C-13.69702707 12.44777206 -8.7377781 7.77617274 -3.53881836 3.33325195 C-2.31408014 2.27212306 -1.14585737 1.14585737 0 0 Z " fill="#076352" transform="translate(74,45)"/>
<path d="M0 0 C0 8.91 0 17.82 0 27 C8.51162825 26.96040724 8.51162825 26.96040724 17.02319336 26.90991211 C18.6030603 26.90616577 18.6030603 26.90616577 20.21484375 26.90234375 C21.84087524 26.89448853 21.84087524 26.89448853 23.49975586 26.88647461 C26 27 26 27 27 28 C27.1875 30.9375 27.1875 30.9375 27 34 C24.39131631 36.60868369 23.25467636 36.25728913 19.625 36.265625 C18.55765625 36.26820312 17.4903125 36.27078125 16.390625 36.2734375 C14.71226563 36.26183594 14.71226563 36.26183594 13 36.25 C11.88109375 36.25773437 10.7621875 36.26546875 9.609375 36.2734375 C8.54203125 36.27085938 7.4746875 36.26828125 6.375 36.265625 C5.39273437 36.26336914 4.41046875 36.26111328 3.3984375 36.25878906 C1 36 1 36 -1 34 C-1.125 30.875 -1.125 30.875 -1 28 C-1.969375 28.020625 -2.93875 28.04125 -3.9375 28.0625 C-7 28 -7 28 -8 27 C-8.08748207 25.07332493 -8.10697334 23.14348139 -8.09765625 21.21484375 C-8.09443359 20.04501953 -8.09121094 18.87519531 -8.08789062 17.66992188 C-8.07951172 16.43822266 -8.07113281 15.20652344 -8.0625 13.9375 C-8.05798828 12.70193359 -8.05347656 11.46636719 -8.04882812 10.19335938 C-8.03699608 7.12885883 -8.02051173 4.06445279 -8 1 C-6 0 -6 0 0 0 Z " fill="#0D6353" transform="translate(8,44)"/>
<path d="M0 0 C4.1117256 -0.02465746 8.22342278 -0.04283959 12.33520508 -0.05493164 C13.73495228 -0.0599708 15.1346942 -0.06680216 16.53442383 -0.07543945 C18.54245777 -0.0875232 20.55052957 -0.09269807 22.55859375 -0.09765625 C24.37315063 -0.10551147 24.37315063 -0.10551147 26.22436523 -0.11352539 C29 0 29 0 30 1 C30.09851171 2.83115883 30.12972629 4.66619933 30.125 6.5 C30.12886719 8.00046875 30.12886719 8.00046875 30.1328125 9.53125 C30 12 30 12 29 13 C26.47905924 13.08847743 23.98569107 13.11527301 21.46484375 13.09765625 C20.33496788 13.09553383 20.33496788 13.09553383 19.18226624 13.09336853 C16.7673044 13.08775376 14.35243399 13.07519883 11.9375 13.0625 C10.30403779 13.0574869 8.67057414 13.05292366 7.03710938 13.04882812 C3.02470415 13.03777954 -0.98763241 13.02050506 -5 13 C-5.5625 11.0625 -5.5625 11.0625 -6 9 C-5 8 -5 8 -1.9375 7.9375 C-0.4834375 7.9684375 -0.4834375 7.9684375 1 8 C0.649375 7.4225 0.29875 6.845 -0.0625 6.25 C-1.16577711 3.60213494 -0.80156509 2.66814674 0 0 Z " fill="#076051" transform="translate(44,1)"/>
<path d="M0 0 C1.12591553 0.00523682 2.25183105 0.01047363 3.41186523 0.01586914 C4.62680664 0.0190918 5.84174805 0.02231445 7.09350586 0.02563477 C8.37290039 0.03401367 9.65229492 0.04239258 10.97045898 0.05102539 C12.2537207 0.05553711 13.53698242 0.06004883 14.85913086 0.06469727 C18.04211921 0.07652994 21.22501661 0.09301471 24.40795898 0.11352539 C24.68318144 7.52924165 24.68318144 7.52924165 23.45483398 10.13696289 C20.21100635 13.51757844 17.73588243 15.78316002 13.04077148 16.44946289 C6.14120065 16.55693284 2.5798093 15.17964736 -2.46704102 10.30102539 C-4.07462105 7.17517533 -3.85273444 4.56771331 -3.59204102 1.11352539 C-2.59204102 0.11352539 -2.59204102 0.11352539 0 0 Z " fill="#066150" transform="translate(49.592041015625,16.886474609375)"/>
<path d="M0 0 C0 8.91 0 17.82 0 27 C-5 27 -5 27 -6.79418945 25.83276367 C-8.43362132 23.34092018 -8.34218158 21.64495545 -8.29296875 18.67578125 C-8.2784668 17.13374023 -8.2784668 17.13374023 -8.26367188 15.56054688 C-8.23853516 14.48869141 -8.21339844 13.41683594 -8.1875 12.3125 C-8.16719727 10.68731445 -8.16719727 10.68731445 -8.14648438 9.02929688 C-8.11110643 6.35236595 -8.06174189 3.67643162 -8 1 C-6 0 -6 0 0 0 Z " fill="#045E4E" transform="translate(8,44)"/>
<path d="M0 0 C1.46156415 0.02009023 2.92315486 0.03833656 4.38476562 0.0546875 C7.94456774 0.09849664 11.50336254 0.16738454 15.0625 0.25 C15.5575 2.23 15.5575 2.23 16.0625 4.25 C14.7425 5.24 13.4225 6.23 12.0625 7.25 C12.7225 5.27 13.3825 3.29 14.0625 1.25 C9.77055854 1.38837796 5.47903071 1.53695939 1.1875 1.6875 C-0.03582031 1.72681641 -1.25914063 1.76613281 -2.51953125 1.80664062 C-4.26943359 1.86948242 -4.26943359 1.86948242 -6.0546875 1.93359375 C-7.13347168 1.97025146 -8.21225586 2.00690918 -9.32373047 2.04467773 C-11.91819536 2.08376643 -11.91819536 2.08376643 -13.9375 3.25 C-15.2575 3.25 -16.5775 3.25 -17.9375 3.25 C-18.2675 3.91 -18.5975 4.57 -18.9375 5.25 C-20.2575 4.92 -21.5775 4.59 -22.9375 4.25 C-16.07467239 -1.18887118 -8.31609792 -0.19882855 0 0 Z " fill="#19594E" transform="translate(58.9375,35.75)"/>
<path d="M0 0 C4.69138756 1.64832536 4.69138756 1.64832536 6.34375 3.53125 C8.58501042 5.51878282 10.23317444 5.49566068 13.1875 5.6875 C14.08855469 5.75324219 14.98960938 5.81898437 15.91796875 5.88671875 C16.60503906 5.92410156 17.29210937 5.96148438 18 6 C18 6.66 18 7.32 18 8 C12.92918782 8.36076925 9.12397641 8.5619882 4.5 6.25 C2.21748034 4.19573231 1.02106495 2.85898185 0 0 Z " fill="#185C4F" transform="translate(47,25)"/>
<path d="M0 0 C0 0.99 0 1.98 0 3 C0.31088368 4.67099977 0.64080332 6.33871537 1 8 C-0.98 8 -2.96 8 -5 8 C-4.45773019 4.20411134 -2.79872437 2.52788007 0 0 Z " fill="#115C4D" transform="translate(47,71)"/>
<path d="M0 0 C1.485 0.99 1.485 0.99 3 2 C4.65549531 2.38499891 6.3222433 2.72793135 8 3 C8 5.31 8 7.62 8 10 C7.67 10 7.34 10 7 10 C7 8.02 7 6.04 7 4 C5.02 4 3.04 4 1 4 C0.67 2.68 0.34 1.36 0 0 Z " fill="#1F5F55" transform="translate(0,68)"/>
<path d="M0 0 C1.4540625 0.0309375 1.4540625 0.0309375 2.9375 0.0625 C1.9784375 0.495625 1.9784375 0.495625 1 0.9375 C-1.21456079 1.89073451 -1.21456079 1.89073451 -2.0625 4.0625 C-0.7425 4.3925 0.5775 4.7225 1.9375 5.0625 C0.2875 5.0625 -1.3625 5.0625 -3.0625 5.0625 C-3.625 3.125 -3.625 3.125 -4.0625 1.0625 C-3.0625 0.0625 -3.0625 0.0625 0 0 Z " fill="#17564B" transform="translate(42.0625,8.9375)"/>
</svg>
