<svg width="59" height="59" viewBox="0 0 59 59" fill="none" xmlns="http://www.w3.org/2000/svg">
<path d="M38.4537 2.52594C38.4537 2.52594 40.0785 5.2328 39.6406 6.56836C39.2488 7.76449 36.9326 7.64004 36.6445 8.86614C36.4256 9.83987 37.4742 11.3425 38.085 12.1111H38.8686C39.6867 10.8194 40.3205 9.60133 40.4818 8.08485C41.3922 9.03668 41.6803 10.5382 40.6086 12.1111H41.5766C42.4984 11.0118 44.3652 8.55039 44.0195 6.96131C43.524 4.64164 38.4537 2.52594 38.4537 2.52594ZM11.9844 5.88502C9.96777 5.88502 8.59188 6.45428 7.89471 7.49946C7.19754 8.54463 7.25977 9.68776 7.25977 10.6096V11.9959H9.33398V10.6096C9.33398 9.68776 9.39621 8.98713 9.62092 8.64949C9.84562 8.31186 10.3135 7.95924 11.9844 7.95924H19.3594C20.5117 7.95924 22.0098 9.39506 22.0098 10.7929V24.8561H24.084V21.5604H35.9877L36.1721 19.4861H24.084V10.7929C24.084 8.1367 21.8945 5.88502 19.3594 5.88502H11.9844ZM6.45312 13.9549V16.0291H10.1406V13.9549H6.45312ZM38.7418 14.1854L37.0939 32.3924H42.1873L40.5395 14.1854H38.7418ZM8.29688 17.8729C7.14453 17.8729 6.00602 18.2647 5.18324 18.9906C4.35932 19.7281 3.80273 20.7768 3.80273 22.367V56.4764H12.791V22.367C12.791 20.7883 12.2379 19.7281 11.4082 18.9906C10.5877 18.2647 9.44922 17.8729 8.29688 17.8729ZM43.7775 26.8611L43.9619 28.9354H47.0156C48.6865 28.9354 49.7467 29.3387 50.4266 30.0186C51.1064 30.71 51.5098 31.8047 51.5098 33.5217V38.1195C51.8324 37.9928 52.1781 37.9236 52.5469 37.9236C52.9156 37.9236 53.2613 37.9928 53.584 38.1195V33.5217C53.584 31.459 53.0654 29.742 51.9016 28.5666C50.7377 27.3797 49.0322 26.8611 47.0156 26.8611H43.7775ZM20.3965 27.0916V28.7049H25.6973V27.0916H20.3965ZM23.1045 30.7791C19.682 30.7791 16.6744 32.473 14.8652 35.0773V37.0018H31.2285V34.916C29.4078 32.4154 26.4578 30.7791 23.1045 30.7791ZM33.3027 34.4666V47.1424H45.9785V34.4666H33.3027ZM14.8652 39.076V40.6893H31.2285V39.076H14.8652ZM52.5469 39.9979C52.0859 39.9979 51.7402 40.3436 51.7402 40.8045C51.7402 41.2654 52.0859 41.6111 52.5469 41.6111C53.0078 41.6111 53.3535 41.2654 53.3535 40.8045C53.3535 40.3436 53.0078 39.9979 52.5469 39.9979ZM14.8652 42.7635V46.5201C15.6258 47.6148 16.5938 48.5482 17.7115 49.2627L15.0957 54.5174V56.4764H19.417V54.5174H17.4119L19.5783 50.1961C20.673 50.5994 21.86 50.8299 23.1045 50.8299C24.349 50.8299 25.5359 50.5994 26.6307 50.1961L28.7971 54.5174H26.792V56.4764H34.167V54.5174H31.1248L28.4975 49.2627C29.5576 48.5828 30.491 47.707 31.2285 46.693V42.7635H14.8652ZM51.5098 43.4895V47.1424H53.584V43.4895C53.2613 43.6162 52.9156 43.6854 52.5469 43.6854C52.1781 43.6854 51.8324 43.6162 51.5098 43.4895ZM38.108 49.2166L43.8236 56.4764H48.5482L42.8326 49.2166H38.108ZM45.483 49.2166L51.1986 56.4764H55.1973V55.4508L50.2076 49.2166H45.483ZM52.858 49.2166L55.1973 52.1436V49.2166H52.858ZM36.9902 51.1295V56.4764H41.1732L36.9902 51.1295Z" fill="#006251"/>
</svg>
