<svg width="93" height="93" viewBox="0 0 93 93" fill="none" xmlns="http://www.w3.org/2000/svg">
<path fill-rule="evenodd" clip-rule="evenodd" d="M56.1875 26.1175C55.6736 26.1175 55.1808 25.9134 54.8175 25.55C54.4541 25.1867 54.25 24.6939 54.25 24.18V15.2714C52.4058 14.4506 50.4446 13.923 48.4375 13.7078V20.305C48.4375 20.8189 48.2334 21.3117 47.87 21.675C47.5067 22.0384 47.0138 22.2425 46.5 22.2425C45.9861 22.2425 45.4933 22.0384 45.13 21.675C44.7666 21.3117 44.5625 20.8189 44.5625 20.305V13.6013C42.562 13.7059 40.5951 14.1583 38.75 14.9381V24.18C38.75 24.6939 38.5459 25.1867 38.1825 25.55C37.8192 25.9134 37.3263 26.1175 36.8125 26.1175C36.2986 26.1175 35.8058 25.9134 35.4425 25.55C35.0791 25.1867 34.875 24.6939 34.875 24.18V17.3503C33.1502 18.8298 31.7965 20.6932 30.9225 22.7908C30.7365 22.9458 30.5544 23.1073 30.3761 23.2752C29.9053 25.0383 29.9557 26.5147 30.2889 27.4408C30.4528 27.922 30.421 28.4483 30.2005 28.9062C29.9799 29.3641 29.5882 29.7171 29.1098 29.8889C28.6315 30.0607 28.1047 30.0377 27.6432 29.8247C27.1817 29.6118 26.8223 29.226 26.6425 28.7506C26.5239 28.4184 26.4281 28.0786 26.3558 27.7334C23.5154 31.7072 26.1349 34.5786 31.186 36.3494C30.8413 38.5601 30.9793 40.8193 31.5905 42.9716C32.2017 45.1239 33.2717 47.1183 34.7268 48.8179C36.1819 50.5175 37.9878 51.8819 40.0202 52.8174C42.0527 53.7529 44.2635 54.2373 46.501 54.2373C48.7384 54.2373 50.9492 53.7529 52.9817 52.8174C55.0141 51.8819 56.82 50.5175 58.2751 48.8179C59.7302 47.1183 60.8002 45.1239 61.4114 42.9716C62.0226 40.8193 62.1606 38.5601 61.8159 36.3494C66.8747 34.5747 69.4942 31.6956 66.6287 27.7101C66.5512 28.0589 66.4543 28.4012 66.338 28.737C66.2568 28.9808 66.1278 29.206 65.9587 29.3995C65.7896 29.593 65.5836 29.7509 65.3529 29.8641C65.1221 29.9772 64.8712 30.0433 64.6146 30.0585C64.3581 30.0737 64.1011 30.0377 63.8586 29.9527C63.616 29.8676 63.3929 29.7351 63.2021 29.563C63.0113 29.3908 62.8566 29.1824 62.7471 28.9499C62.6376 28.7174 62.5755 28.4654 62.5643 28.2087C62.5531 27.9519 62.5931 27.6955 62.682 27.4544C63.0598 26.3771 63.0695 24.9453 62.649 23.3895C62.4993 23.3057 62.3468 23.2268 62.1918 23.1531C61.4129 21.235 60.0528 19.3111 58.125 17.6933V24.1839C58.125 24.6977 57.9209 25.1905 57.5575 25.5539C57.1942 25.9173 56.7013 26.1214 56.1875 26.1214M47.7477 38.4729C48.0925 38.3091 48.4016 38.0789 48.6574 37.7956C48.9132 37.5123 49.1107 37.1814 49.2387 36.8217C49.3666 36.4621 49.4224 36.0807 49.403 35.6995C49.3835 35.3183 49.2892 34.9446 49.1253 34.5999C48.9614 34.2551 48.7313 33.946 48.448 33.6902C48.1646 33.4344 47.8337 33.2369 47.4741 33.109C47.1144 32.981 46.7331 32.9252 46.3519 32.9447C45.9707 32.9641 45.597 33.0585 45.2522 33.2223C44.556 33.5532 44.0197 34.1472 43.7613 34.8735C43.503 35.5999 43.5438 36.3991 43.8747 37.0954C44.2056 37.7917 44.7996 38.328 45.5259 38.5863C46.2522 38.8446 47.0515 38.8039 47.7477 38.4729ZM46.5 42.625C49.4256 42.625 51.9172 40.7728 52.8686 38.1784C54.6071 38.0126 56.3362 37.7597 58.0494 37.4209C58.0998 37.8575 58.125 38.3005 58.125 38.75C58.1242 40.3322 57.8004 41.8976 57.1735 43.3502C56.5466 44.8029 55.6298 46.1124 54.4792 47.1983C53.3285 48.2843 51.9683 49.124 50.4819 49.6659C48.9954 50.2079 47.4139 50.4407 45.8344 50.3501C44.2548 50.2595 42.7103 49.8474 41.2955 49.1391C39.8808 48.4307 38.6255 47.4411 37.6066 46.2307C36.5876 45.0202 35.8265 43.6146 35.3698 42.0997C34.9131 40.5849 34.7704 38.9928 34.9505 37.4209C36.5819 37.7503 38.3257 38.0021 40.1314 38.1765C40.6094 39.4811 41.4765 40.6074 42.6156 41.4031C43.7546 42.1987 45.1106 42.6252 46.5 42.625Z" fill="#FFCD29"/>
<path d="M48.4375 13.5625C48.4375 13.0486 48.2334 12.5558 47.87 12.1925C47.5067 11.8291 47.0139 11.625 46.5 11.625C45.9861 11.625 45.4933 11.8291 45.13 12.1925C44.7666 12.5558 44.5625 13.0486 44.5625 13.5625H48.4375Z" fill="#FFCD29"/>
<path fill-rule="evenodd" clip-rule="evenodd" d="M55.1529 55.025C57.381 55.3815 59.7021 55.8582 62 56.4491V81.375H31V56.4491C33.2598 55.8716 35.5445 55.3964 37.8471 55.025L44.5625 60.0625H48.4375L55.1529 55.025ZM50.375 71.6875C50.375 72.7152 49.9667 73.7009 49.24 74.4276C48.5133 75.1543 47.5277 75.5625 46.5 75.5625C45.4723 75.5625 44.4867 75.1543 43.76 74.4276C43.0333 73.7009 42.625 72.7152 42.625 71.6875C42.625 70.6598 43.0333 69.6742 43.76 68.9475C44.4867 68.2208 45.4723 67.8125 46.5 67.8125C47.5277 67.8125 48.5133 68.2208 49.24 68.9475C49.9667 69.6742 50.375 70.6598 50.375 71.6875Z" fill="#FFCD29"/>
<path d="M23.25 58.9485C24.5243 58.4382 25.8168 57.9748 27.125 57.5593V81.375H23.25V58.9485ZM65.875 57.5593C67.2061 57.9855 68.5042 58.4486 69.75 58.9485V81.375H65.875V57.5593ZM19.375 60.731C14.7928 63.1567 11.625 66.1986 11.625 69.75V81.375H19.375V60.731ZM81.375 69.75C81.375 66.1986 78.2072 63.1548 73.625 60.731V81.375H81.375V69.75Z" fill="#FFCD29"/>
</svg>
