<svg width="163" height="162" viewBox="0 0 163 162" fill="none" xmlns="http://www.w3.org/2000/svg">
<path fill-rule="evenodd" clip-rule="evenodd" d="M76.9044 1.11125C79.8729 0.0308704 83.1271 0.0308704 86.0956 1.11125L153.283 25.5406C155.875 26.484 158.114 28.2022 159.696 30.4619C161.278 32.7217 162.126 35.4135 162.125 38.1719V147.687C162.125 151.251 160.709 154.669 158.189 157.189C155.669 159.709 152.251 161.125 148.688 161.125H14.3125C10.7487 161.125 7.33077 159.709 4.81075 157.189C2.29073 154.669 0.875001 151.251 0.875001 147.687V38.1719C0.874173 35.4135 1.72225 32.7217 3.30407 30.4619C4.8859 28.2022 7.12483 26.484 9.71688 25.5406L76.9044 1.11125ZM41.1875 147.687H54.625V120.812C54.625 117.249 56.0407 113.831 58.5608 111.311C61.0808 108.791 64.4987 107.375 68.0625 107.375H94.9375C98.5014 107.375 101.919 108.791 104.439 111.311C106.959 113.831 108.375 117.249 108.375 120.812V147.687H121.812V67.0625H41.1875V147.687ZM135.25 147.687V67.0625C135.25 63.4986 133.834 60.0808 131.314 57.5607C128.794 55.0407 125.376 53.625 121.812 53.625H41.1875C37.6237 53.625 34.2058 55.0407 31.6858 57.5607C29.1657 60.0808 27.75 63.4986 27.75 67.0625V147.687H14.3125V38.1719L81.5 13.7425L148.688 38.1719V147.687H135.25Z" fill="white"/>
</svg>
