<svg width="46" height="46" viewBox="0 0 46 46" fill="none" xmlns="http://www.w3.org/2000/svg">
<path fill-rule="evenodd" clip-rule="evenodd" d="M21.1961 0.975744C22.0384 0.669218 22.9616 0.669218 23.8039 0.975744L42.8664 7.90687C43.6018 8.17452 44.237 8.66201 44.6858 9.30315C45.1346 9.94429 45.3752 10.708 45.375 11.4906V42.5625C45.375 43.5736 44.9733 44.5434 44.2583 45.2583C43.5434 45.9733 42.5736 46.375 41.5625 46.375H3.4375C2.42636 46.375 1.45664 45.9733 0.741655 45.2583C0.026673 44.5434 -0.375 43.5736 -0.375 42.5625V11.4906C-0.375235 10.708 -0.134619 9.94429 0.314178 9.30315C0.762975 8.66201 1.39821 8.17452 2.13363 7.90687L21.1961 0.975744ZM11.0625 42.5625H14.875V34.9375C14.875 33.9264 15.2767 32.9566 15.9917 32.2416C16.7066 31.5267 17.6764 31.125 18.6875 31.125H26.3125C27.3236 31.125 28.2934 31.5267 29.0083 32.2416C29.7233 32.9566 30.125 33.9264 30.125 34.9375V42.5625H33.9375V19.6875H11.0625V42.5625ZM37.75 42.5625V19.6875C37.75 18.6764 37.3483 17.7066 36.6333 16.9916C35.9184 16.2767 34.9486 15.875 33.9375 15.875H11.0625C10.0514 15.875 9.08164 16.2767 8.36666 16.9916C7.65167 17.7066 7.25 18.6764 7.25 19.6875V42.5625H3.4375V11.4906L22.5 4.55949L41.5625 11.4906V42.5625H37.75Z" fill="#006251"/>
</svg>
