<svg width="37" height="37" viewBox="0 0 37 37" fill="none" xmlns="http://www.w3.org/2000/svg">
<path d="M8.7567 13.7717C10.0496 13.0379 11.396 12.4865 12.7959 12.1175C14.1967 11.7475 15.6294 11.5625 17.094 11.5625C17.8443 11.5625 18.5936 11.6087 19.3418 11.7013C20.09 11.7938 20.8269 11.9428 21.5525 12.1483C22.9164 12.5286 23.9534 12.783 24.6636 12.9115C25.3748 13.0399 26.1457 13.1042 26.9761 13.1042H28.342L29.0867 6.16667H7.8872L8.7567 13.7717ZM11.5255 32.375C10.8678 32.375 10.304 32.1674 9.83433 31.7522C9.36463 31.3369 9.10101 30.8102 9.04345 30.172L6.38253 6.60296C6.31367 6.06851 6.4627 5.6055 6.82962 5.21392C7.19653 4.82233 7.64824 4.62603 8.18474 4.625H28.8184C29.3529 4.625 29.8035 4.82131 30.1704 5.21392C30.5374 5.60653 30.6864 6.06903 30.6175 6.60142L27.989 30.1735C27.9314 30.8107 27.6678 31.3369 27.1981 31.7522C26.7295 32.1674 26.1657 32.375 25.5069 32.375H11.5255Z" fill="#006251"/>
</svg>
