<svg width="52" height="52" viewBox="0 0 52 52" fill="none" xmlns="http://www.w3.org/2000/svg">
<path d="M26.0001 23.8333C26.614 23.8333 27.1289 23.6253 27.5449 23.2093C27.9609 22.7933 28.1682 22.2791 28.1667 21.6666V15.1666C28.1667 14.5528 27.9587 14.0385 27.5427 13.624C27.1267 13.2094 26.6125 13.0014 26.0001 13C25.3876 12.9985 24.8734 13.2065 24.4574 13.624C24.0414 14.0414 23.8334 14.5556 23.8334 15.1666V21.6666C23.8334 22.2805 24.0414 22.7955 24.4574 23.2115C24.8734 23.6275 25.3876 23.8348 26.0001 23.8333ZM26.0001 32.5C26.614 32.5 27.1289 32.292 27.5449 31.876C27.9609 31.46 28.1682 30.9458 28.1667 30.3333C28.1653 29.7209 27.9573 29.2066 27.5427 28.7906C27.1282 28.3746 26.614 28.1666 26.0001 28.1666C25.3862 28.1666 24.872 28.3746 24.4574 28.7906C24.0429 29.2066 23.8349 29.7209 23.8334 30.3333C23.832 30.9458 24.04 31.4607 24.4574 31.8781C24.8749 32.2956 25.3891 32.5029 26.0001 32.5ZM26.0001 41.925C30.4056 37.8805 33.6737 34.2066 35.8042 30.9031C37.9348 27.5997 39.0001 24.6653 39.0001 22.1C39.0001 18.1639 37.7456 14.9413 35.2366 12.4323C32.7276 9.92331 29.6487 8.66809 26.0001 8.66665C22.3514 8.6652 19.2733 9.92042 16.7657 12.4323C14.2582 14.9442 13.003 18.1668 13.0001 22.1C13.0001 24.6639 14.0654 27.5983 16.1959 30.9031C18.3265 34.208 21.5945 37.882 26.0001 41.925ZM26.0001 46.2042C25.4945 46.2042 24.989 46.1139 24.4834 45.9333C23.9779 45.7528 23.5265 45.4819 23.1292 45.1208C20.782 42.9542 18.7056 40.8416 16.9001 38.7833C15.0945 36.725 13.5872 34.7302 12.3782 32.799C11.1692 30.8678 10.2484 29.008 9.61575 27.2198C8.98308 25.4316 8.66675 23.725 8.66675 22.1C8.66675 16.6833 10.4095 12.368 13.8949 9.15415C17.3804 5.94026 21.4154 4.33331 26.0001 4.33331C30.5847 4.33331 34.6205 5.94026 38.1074 9.15415C41.5943 12.368 43.3363 16.6833 43.3334 22.1C43.3334 23.725 43.0178 25.4316 42.3866 27.2198C41.7554 29.008 40.8345 30.8678 39.6241 32.799C38.4136 34.7302 36.9056 36.725 35.1001 38.7833C33.2945 40.8416 31.2181 42.9542 28.8709 45.1208C28.4737 45.4819 28.0223 45.7528 27.5167 45.9333C27.0112 46.1139 26.5056 46.2042 26.0001 46.2042Z" fill="#006251"/>
</svg>
