<svg width="61" height="61" viewBox="0 0 61 61" fill="none" xmlns="http://www.w3.org/2000/svg">
<path d="M45.7501 47.0209C47.8597 47.0209 49.5626 45.3179 49.5626 43.2084C49.5626 41.0988 47.8597 39.3959 45.7501 39.3959C43.6405 39.3959 41.9376 41.0988 41.9376 43.2084C41.9376 45.3179 43.6405 47.0209 45.7501 47.0209ZM49.5626 24.1459H43.2084V30.5H54.5442L49.5626 24.1459ZM15.2501 47.0209C17.3597 47.0209 19.0626 45.3179 19.0626 43.2084C19.0626 41.0988 17.3597 39.3959 15.2501 39.3959C13.1405 39.3959 11.4376 41.0988 11.4376 43.2084C11.4376 45.3179 13.1405 47.0209 15.2501 47.0209ZM50.8334 20.3334L58.4584 30.5V43.2084H53.3751C53.3751 47.4275 49.9692 50.8334 45.7501 50.8334C41.5309 50.8334 38.1251 47.4275 38.1251 43.2084H22.8751C22.8751 47.4275 19.4692 50.8334 15.2501 50.8334C11.0309 50.8334 7.62508 47.4275 7.62508 43.2084H2.54175V15.25C2.54175 12.4288 4.80383 10.1667 7.62508 10.1667H43.2084V20.3334H50.8334ZM7.62508 15.25V38.125H9.55675C10.9547 36.5746 12.988 35.5834 15.2501 35.5834C17.5122 35.5834 19.5455 36.5746 20.9434 38.125H38.1251V15.25H7.62508ZM12.7084 26.6875L16.5209 22.875L20.3334 26.6875L29.2292 17.7917L33.0417 21.6042L20.3334 34.3125L12.7084 26.6875Z" fill="#006251"/>
</svg>
