<svg width="28" height="28" viewBox="0 0 28 28" fill="none" xmlns="http://www.w3.org/2000/svg">
<path d="M14.0002 2.33331C20.4437 2.33331 25.6668 7.55648 25.6668 14C25.6668 20.4435 20.4437 25.6666 14.0002 25.6666C7.55666 25.6666 2.3335 20.4435 2.3335 14C2.3335 7.55648 7.55666 2.33331 14.0002 2.33331ZM14.0002 6.99998C13.6907 6.99998 13.394 7.1229 13.1752 7.34169C12.9564 7.56048 12.8335 7.85723 12.8335 8.16665V14C12.8336 14.3094 12.9565 14.6061 13.1753 14.8248L16.6753 18.3248C16.8954 18.5373 17.1901 18.6549 17.496 18.6523C17.8019 18.6496 18.0945 18.5269 18.3108 18.3106C18.5271 18.0943 18.6498 17.8017 18.6525 17.4958C18.6551 17.1899 18.5375 16.8952 18.325 16.6751L15.1668 13.517V8.16665C15.1668 7.85723 15.0439 7.56048 14.8251 7.34169C14.6063 7.1229 14.3096 6.99998 14.0002 6.99998Z" fill="#006251"/>
</svg>
