<svg width="23" height="23" viewBox="0 0 23 23" fill="none" xmlns="http://www.w3.org/2000/svg">
<g clip-path="url(#clip0_65_8)">
<path d="M6.72029 2.35032C6.72029 2.04126 6.46873 1.7879 6.15967 1.7879H4.0699C3.76084 1.7879 3.50928 2.04126 3.50928 2.35032V22.5059H6.72029V2.35032Z" fill="#ED6C30"/>
<path d="M13.1334 9.08501C13.1334 8.77594 12.8818 8.52258 12.5728 8.52258H10.4848C10.1757 8.52258 9.92236 8.77594 9.92236 9.08501V22.5059H13.1334V9.08501Z" fill="#006CA2"/>
<path d="M19.5483 5.51823C19.5483 5.20917 19.2949 4.95581 18.9858 4.95581H16.8961C16.5888 4.95581 16.3354 5.20917 16.3354 5.51823V22.5041H19.5465V5.51823H19.5483Z" fill="#FCC21B"/>
<path d="M22.0351 23H0.495937C0.221016 23 0 22.779 0 22.504V1.11044C0 0.978909 0.0522504 0.852765 0.145257 0.759759C0.238263 0.666752 0.364407 0.614502 0.495937 0.614502C0.56098 0.614502 0.625384 0.627342 0.685453 0.652287C0.745522 0.677232 0.800076 0.713791 0.845985 0.759867C0.891893 0.805943 0.928254 0.860629 0.952981 0.920788C0.977708 0.980948 0.990315 1.0454 0.990078 1.11044V22.0099H22.0351C22.1002 22.0099 22.1647 22.0227 22.2249 22.0476C22.285 22.0726 22.3397 22.1091 22.3858 22.1551C22.4318 22.2012 22.4683 22.2559 22.4933 22.316C22.5182 22.3762 22.531 22.4407 22.531 22.5058C22.531 22.779 22.3082 23 22.0351 23Z" fill="#2F2F2F"/>
</g>
<defs>
<clipPath id="clip0_65_8">
<rect width="23" height="23" fill="white"/>
</clipPath>
</defs>
</svg>
