<svg width="69" height="69" viewBox="0 0 69 69" fill="none" xmlns="http://www.w3.org/2000/svg">
<path d="M63.7172 19.0423L35.093 10.8647C34.8015 10.7812 34.4956 10.76 34.1954 10.8027L5.85961 14.8511C4.83365 15.002 3.8958 15.5157 3.2163 16.2991C2.5368 17.0824 2.16069 18.0835 2.15625 19.1204V49.8794C2.16069 50.9163 2.5368 51.9174 3.2163 52.7007C3.8958 53.4841 4.83365 53.9978 5.85961 54.1487L34.1954 58.1917C34.2962 58.2075 34.398 58.2165 34.5 58.2187C34.7006 58.2185 34.9002 58.1904 35.093 58.1351L63.7172 49.9575C64.615 49.6976 65.4046 49.1542 65.9681 48.4085C66.5316 47.6628 66.8388 46.7549 66.8438 45.8202V23.1796C66.8388 22.2449 66.5316 21.337 65.9681 20.5913C65.4046 19.8456 64.615 19.3022 63.7172 19.0423ZM17.25 32.3436H12.9375C12.3656 32.3436 11.8172 32.5708 11.4128 32.9752C11.0084 33.3796 10.7812 33.928 10.7812 34.4999C10.7812 35.0718 11.0084 35.6202 11.4128 36.0246C11.8172 36.429 12.3656 36.6562 12.9375 36.6562H17.25V51.4211L6.46875 49.8794V19.1204L17.25 17.5787V32.3436ZM32.3438 53.5773L21.5625 52.0356V36.6562H25.875C26.4469 36.6562 26.9953 36.429 27.3997 36.0246C27.8041 35.6202 28.0312 35.0718 28.0312 34.4999C28.0312 33.928 27.8041 33.3796 27.3997 32.9752C26.9953 32.5708 26.4469 32.3436 25.875 32.3436H21.5625V16.9642L32.3438 15.4225V53.5773Z" fill="#006251"/>
</svg>
