<svg width="35" height="35" viewBox="0 0 35 35" fill="none" xmlns="http://www.w3.org/2000/svg">
<g clip-path="url(#clip0_41_17)">
<path d="M24.0625 15.3125C24.0625 18.9438 21.1313 21.875 17.5 21.875C13.8688 21.875 10.9375 18.9438 10.9375 15.3125C10.9375 11.6813 13.8688 8.75 17.5 8.75C21.1313 8.75 24.0625 11.6813 24.0625 15.3125Z" fill="#757575"/>
<path fill-rule="evenodd" clip-rule="evenodd" d="M35 17.5C35 27.1688 27.1688 35 17.5 35C7.83125 35 0 27.1688 0 17.5C0 7.83125 7.83125 0 17.5 0C27.1688 0 35 7.83125 35 17.5ZM8.75 30.0781C9.1 29.4963 12.4906 24.0625 17.4781 24.0625C22.4438 24.0625 25.8562 29.5094 26.2062 30.0781C28.2403 28.6715 29.9023 26.7919 31.0493 24.6009C32.1962 22.4099 32.7938 19.9731 32.7906 17.5C32.7906 9.03438 25.9437 2.1875 17.4781 2.1875C9.0125 2.1875 2.16563 9.03438 2.16563 17.5C2.16563 22.7063 4.76875 27.3219 8.75 30.0781Z" fill="#757575"/>
</g>
<defs>
<clipPath id="clip0_41_17">
<rect width="35" height="35" fill="white"/>
</clipPath>
</defs>
</svg>
