<svg width="168" height="160" viewBox="0 0 168 160" fill="none" xmlns="http://www.w3.org/2000/svg">
<path fill-rule="evenodd" clip-rule="evenodd" d="M102.573 132.781C106.948 130.594 111.748 129.386 116.638 129.242C121.528 129.098 126.39 130.022 130.887 131.948L132.688 132.79L155.059 143.967C156.981 144.927 158.463 146.584 159.202 148.601C159.941 150.618 159.881 152.841 159.035 154.815C158.188 156.789 156.619 158.364 154.648 159.219C152.678 160.074 150.455 160.143 148.435 159.412L147.535 159.025L125.155 147.839C123.056 146.79 120.761 146.191 118.417 146.08C116.074 145.97 113.733 146.351 111.545 147.199L110.097 147.839L99.021 153.385C94.6438 155.573 89.8423 156.78 84.951 156.922C80.0596 157.065 75.196 156.139 70.6989 154.21L68.9062 153.385L57.8214 147.839C55.7227 146.79 53.4279 146.191 51.0841 146.08C48.7404 145.97 46.3995 146.351 44.2117 147.199L42.764 147.839L20.3925 159.033C18.4706 160.005 16.2492 160.203 14.1856 159.587C12.122 158.97 10.3731 157.586 9.29902 155.72C8.22491 153.853 7.90728 151.645 8.41148 149.552C8.91569 147.458 10.2034 145.637 12.0095 144.464L12.868 143.967L35.2395 132.781C39.615 130.594 44.4147 129.386 49.3044 129.242C54.1942 129.098 59.0566 130.022 63.5532 131.948L65.3543 132.79L76.4307 138.328C78.5305 139.378 80.8268 139.978 83.1721 140.088C85.5174 140.198 87.8598 139.817 90.0488 138.968L91.4881 138.328L102.573 132.781ZM92.3803 0C94.6125 0 96.7533 0.886753 98.3317 2.46518C99.9102 4.04362 100.797 6.18443 100.797 8.41667V19.5267L128.816 24.1895C132.745 24.8468 136.313 26.8761 138.887 29.9167C141.461 32.9573 142.873 36.812 142.872 40.7956V69.6816L160.21 75.4554C161.591 75.9161 162.861 76.6583 163.941 77.6351C165.02 78.6119 165.885 79.8021 166.48 81.1303C167.076 82.4585 167.39 83.8959 167.401 85.3516C167.413 86.8072 167.122 88.2494 166.548 89.587L148.292 132.175L132.688 124.365C128.013 122.027 122.857 120.81 117.63 120.81C112.403 120.81 107.248 122.027 102.573 124.365L91.4881 129.911C89.1505 131.08 86.5729 131.689 83.9594 131.689C81.3459 131.689 78.7682 131.08 76.4307 129.911L65.3543 124.365C60.6792 122.027 55.524 120.81 50.2969 120.81C45.0699 120.81 39.9146 122.027 35.2395 124.365L24.5503 129.718L2.17883 90.5718C1.40659 89.2203 0.943852 87.7143 0.823974 86.1624C0.704096 84.6105 0.930066 83.0513 1.48559 81.5972C2.04112 80.1432 2.91236 78.8306 4.03651 77.7539C5.16065 76.6773 6.50968 75.8635 7.98633 75.3713L25.0469 69.6816V40.7956C25.0461 36.812 26.458 32.9573 29.0316 29.9167C31.6053 26.8761 35.1738 24.8468 39.1027 24.1895L67.1302 19.5267V8.41667C67.1302 6.18443 68.017 4.04362 69.5954 2.46518C71.1739 0.886753 73.3147 0 75.5469 0H92.3803ZM83.9636 33.7845L41.8802 40.7956V64.0761L78.6358 51.8214C82.0914 50.6695 85.8274 50.6695 89.2829 51.8214L126.047 64.0761V40.7956L83.9636 33.7845Z" fill="white"/>
</svg>
