<svg width="51" height="51" viewBox="0 0 51 51" fill="none" xmlns="http://www.w3.org/2000/svg">
<path d="M25.5 26.5625C23.5275 26.5625 21.6357 27.3461 20.2409 28.7409C18.8461 30.1357 18.0625 32.0275 18.0625 34C18.0625 35.9725 18.8461 37.8643 20.2409 39.2591C21.6357 40.6539 23.5275 41.4375 25.5 41.4375C27.4725 41.4375 29.3643 40.6539 30.7591 39.2591C32.1539 37.8643 32.9375 35.9725 32.9375 34C32.9375 32.0275 32.1539 30.1357 30.7591 28.7409C29.3643 27.3461 27.4725 26.5625 25.5 26.5625ZM22.3125 34C22.3125 33.1546 22.6483 32.3439 23.2461 31.7461C23.8439 31.1483 24.6546 30.8125 25.5 30.8125C26.3454 30.8125 27.1561 31.1483 27.7539 31.7461C28.3517 32.3439 28.6875 33.1546 28.6875 34C28.6875 34.8454 28.3517 35.6561 27.7539 36.2539C27.1561 36.8517 26.3454 37.1875 25.5 37.1875C24.6546 37.1875 23.8439 36.8517 23.2461 36.2539C22.6483 35.6561 22.3125 34.8454 22.3125 34Z" fill="#006251"/>
<path d="M37.2427 10.8715L30.4874 1.40039L5.64825 21.2436L4.27125 21.2288V21.25H3.1875V46.75H47.8125V21.25H45.7682L41.701 9.35214L37.2427 10.8715ZM41.2781 21.25H19.9686L35.8402 15.8398L39.0745 14.8049L41.2781 21.25ZM33.0438 12.3038L16.66 17.8883L29.6353 7.52252L33.0438 12.3038ZM7.4375 38.6091V29.3866C8.33462 29.07 9.14951 28.5566 9.8224 27.8841C10.4953 27.2116 11.0091 26.397 11.3263 25.5H39.6738C39.9906 26.3974 40.5043 27.2124 41.1772 27.8853C41.8501 28.5582 42.6652 29.0719 43.5625 29.3888V38.6113C42.6652 38.9281 41.8501 39.4418 41.1772 40.1147C40.5043 40.7876 39.9906 41.6027 39.6738 42.5H11.3305C11.0121 41.6026 10.4974 40.7876 9.82392 40.1144C9.15041 39.4413 8.3351 38.927 7.4375 38.6091Z" fill="#006251"/>
</svg>
