<svg width="60" height="45" viewBox="0 0 60 45" fill="none" xmlns="http://www.w3.org/2000/svg">
<path d="M46.0417 40.1041C48.2896 40.1041 50.1042 38.2895 50.1042 36.0416C50.1042 33.7937 48.2896 31.9791 46.0417 31.9791C43.7937 31.9791 41.9792 33.7937 41.9792 36.0416C41.9792 38.2895 43.7937 40.1041 46.0417 40.1041ZM50.1042 15.7291H43.3333V22.4999H55.4125L50.1042 15.7291ZM13.5417 40.1041C15.7896 40.1041 17.6042 38.2895 17.6042 36.0416C17.6042 33.7937 15.7896 31.9791 13.5417 31.9791C11.2937 31.9791 9.47917 33.7937 9.47917 36.0416C9.47917 38.2895 11.2937 40.1041 13.5417 40.1041ZM51.4583 11.6666L59.5833 22.4999V36.0416H54.1667C54.1667 40.5374 50.5375 44.1666 46.0417 44.1666C41.5458 44.1666 37.9167 40.5374 37.9167 36.0416H21.6667C21.6667 40.5374 18.0375 44.1666 13.5417 44.1666C9.04583 44.1666 5.41667 40.5374 5.41667 36.0416H0V6.24992C0 3.24367 2.41042 0.833252 5.41667 0.833252H43.3333V11.6666H51.4583ZM5.41667 6.24992V30.6249H7.475C8.96458 28.9728 11.1312 27.9166 13.5417 27.9166C15.9521 27.9166 18.1187 28.9728 19.6083 30.6249H37.9167V6.24992H5.41667ZM10.8333 18.4374L14.8958 14.3749L18.9583 18.4374L28.4375 8.95825L32.5 13.0208L18.9583 26.5624L10.8333 18.4374Z" fill="#006251"/>
</svg>
