<svg width="53" height="53" viewBox="0 0 53 53" fill="none" xmlns="http://www.w3.org/2000/svg">
<path d="M7.99427 38.16C8.21097 38.7047 8.63517 39.141 9.17356 39.3729C9.71195 39.6048 10.3204 39.6134 10.8651 39.3967C11.4098 39.18 11.8461 38.7558 12.078 38.2174C12.3099 37.679 12.3185 37.0705 12.1018 36.5259L9.62843 30.2984L24.2918 27.0521V37.5417C24.2918 38.1274 24.5244 38.6891 24.9386 39.1032C25.3527 39.5174 25.9144 39.75 26.5001 39.75C27.0858 39.75 27.6475 39.5174 28.0616 39.1032C28.4758 38.6891 28.7084 38.1274 28.7084 37.5417V27.0521L43.3718 30.2984L40.8984 36.5259C40.7909 36.7955 40.7375 37.0838 40.7415 37.3741C40.7454 37.6644 40.8066 37.9511 40.9214 38.2177C41.0363 38.4844 41.2026 38.7257 41.4109 38.928C41.6191 39.1303 41.8652 39.2896 42.1351 39.3967C42.3952 39.4995 42.6725 39.5519 42.9522 39.5513C43.3945 39.5517 43.8267 39.4193 44.1929 39.1713C44.559 38.9232 44.8423 38.5709 45.0059 38.16L48.4288 29.5254C48.5463 29.2268 48.5973 28.9061 48.5783 28.5858C48.5592 28.2654 48.4705 27.953 48.3184 27.6704C48.1709 27.3889 47.9643 27.1425 47.7127 26.9481C47.4612 26.7537 47.1706 26.6159 46.8609 26.5442L39.7501 24.9763V15.4584C39.7501 14.8727 39.5174 14.311 39.1033 13.8968C38.6892 13.4827 38.1275 13.25 37.5418 13.25H33.1251V6.62502C33.1251 6.03933 32.8924 5.47764 32.4783 5.06349C32.0641 4.64935 31.5025 4.41669 30.9168 4.41669H22.0834C21.4977 4.41669 20.936 4.64935 20.5219 5.06349C20.1078 5.47764 19.8751 6.03933 19.8751 6.62502V13.25H15.4584C14.8727 13.25 14.311 13.4827 13.8969 13.8968C13.4828 14.311 13.2501 14.8727 13.2501 15.4584V24.9763L6.13927 26.5C5.82958 26.5718 5.53903 26.7096 5.28749 26.9039C5.03594 27.0983 4.82933 27.3447 4.68177 27.6263C4.52968 27.9089 4.44101 28.2212 4.42194 28.5416C4.40287 28.862 4.45386 29.1826 4.57135 29.4813L7.99427 38.16ZM24.2918 8.83335H28.7084V13.25H24.2918V8.83335ZM17.6668 17.6667H35.3334V23.9825L26.9859 22.0834H26.0143L17.6668 23.9825V17.6667ZM45.7347 42.5767C44.96 42.8146 44.2181 43.1484 43.5263 43.5704C42.8228 43.9818 42.0226 44.1987 41.2076 44.1987C40.3926 44.1987 39.5924 43.9818 38.8889 43.5704C37.3591 42.7074 35.6324 42.254 33.8759 42.254C32.1195 42.254 30.3928 42.7074 28.863 43.5704C28.1499 43.9771 27.3431 44.1909 26.5222 44.1909C25.7013 44.1909 24.8945 43.9771 24.1813 43.5704C22.6502 42.7116 20.924 42.2605 19.1684 42.2605C17.4128 42.2605 15.6867 42.7116 14.1555 43.5704C13.452 43.9818 12.6517 44.1987 11.8368 44.1987C11.0218 44.1987 10.2215 43.9818 9.51802 43.5704C8.82622 43.1484 8.08435 42.8146 7.30968 42.5767C7.01585 42.4722 6.70322 42.4312 6.39237 42.4562C6.08152 42.4813 5.77951 42.5719 5.50621 42.7221C5.23292 42.8723 4.99453 43.0787 4.80676 43.3277C4.61898 43.5767 4.48607 43.8626 4.41677 44.1667C4.2519 44.726 4.31495 45.3278 4.59213 45.8408C4.86932 46.3538 5.33816 46.7364 5.89635 46.905C6.34103 47.0255 6.76527 47.2116 7.1551 47.4571C8.49491 48.2433 10.0184 48.6622 11.5718 48.6717C13.1852 48.672 14.7699 48.2453 16.1651 47.435C17.0307 46.9575 18.0032 46.7071 18.9918 46.7071C19.9803 46.7071 20.9528 46.9575 21.8184 47.435C23.2037 48.2271 24.7718 48.6438 26.3676 48.6438C27.9634 48.6438 29.5315 48.2271 30.9168 47.435C31.7824 46.9575 32.7548 46.7071 33.7434 46.7071C34.732 46.7071 35.7045 46.9575 36.5701 47.435C37.9389 48.2519 39.5032 48.6833 41.0972 48.6833C42.6912 48.6833 44.2555 48.2519 45.6243 47.435C46.0141 47.1895 46.4383 47.0034 46.883 46.8829C47.1769 46.8235 47.4556 46.7048 47.7021 46.5341C47.9487 46.3635 48.1578 46.1444 48.3169 45.8902C48.476 45.6361 48.5817 45.3522 48.6275 45.0559C48.6734 44.7596 48.6583 44.457 48.5834 44.1667C48.5133 43.8678 48.3815 43.5869 48.1967 43.3418C48.0118 43.0967 47.7779 42.8928 47.5098 42.7432C47.2418 42.5936 46.9455 42.5015 46.6398 42.4728C46.3342 42.4442 46.0259 42.4795 45.7347 42.5767Z" fill="#006251"/>
</svg>
